<svg width="236" height="73" viewBox="0 0 236 73" fill="none" xmlns="http://www.w3.org/2000/svg">
<g filter="url(#filter0_d_1_5)">
<path d="M34.7754 37.44C34.7754 38.76 34.7154 39.9 34.5954 40.86H14.8554C15.1754 43.54 15.9354 45.42 17.1354 46.5C18.3354 47.58 19.9954 48.12 22.1154 48.12C23.3954 48.12 24.6354 47.9 25.8354 47.46C27.0354 46.98 28.3354 46.26 29.7354 45.3L33.6354 50.58C29.9154 53.54 25.7754 55.02 21.2154 55.02C16.0554 55.02 12.0954 53.5 9.33539 50.46C6.57539 47.42 5.19539 43.34 5.19539 38.22C5.19539 34.98 5.77539 32.08 6.93539 29.52C8.09539 26.92 9.79539 24.88 12.0354 23.4C14.2754 21.88 16.9554 21.12 20.0754 21.12C24.6754 21.12 28.2754 22.56 30.8754 25.44C33.4754 28.32 34.7754 32.32 34.7754 37.44ZM25.4754 34.74C25.3954 29.86 23.6754 27.42 20.3154 27.42C18.6754 27.42 17.3954 28.02 16.4754 29.22C15.5954 30.42 15.0554 32.4 14.8554 35.16H25.4754V34.74Z" fill="white"/>
<path d="M68.6609 22.14V67.32L59.1809 66.3V50.94C57.0609 53.66 54.2409 55.02 50.7209 55.02C46.7609 55.02 43.7409 53.5 41.6609 50.46C39.6209 47.42 38.6009 43.26 38.6009 37.98C38.6009 34.7 39.1409 31.8 40.2209 29.28C41.3009 26.72 42.8209 24.72 44.7809 23.28C46.7809 21.84 49.0809 21.12 51.6809 21.12C54.9209 21.12 57.6609 22.38 59.9009 24.9L60.3809 22.14H68.6609ZM53.6609 48.06C55.8609 48.06 57.7009 46.86 59.1809 44.46V30.72C58.4209 29.8 57.6609 29.12 56.9009 28.68C56.1409 28.24 55.2609 28.02 54.2609 28.02C52.4609 28.02 51.0409 28.84 50.0009 30.48C48.9609 32.08 48.4409 34.6 48.4409 38.04C48.4409 41.76 48.8809 44.36 49.7609 45.84C50.6809 47.32 51.9809 48.06 53.6609 48.06Z" fill="white"/>
<path d="M102.957 54H94.7374L94.3174 49.98C91.9974 53.34 88.7774 55.02 84.6574 55.02C81.7374 55.02 79.5174 54.14 77.9974 52.38C76.5174 50.62 75.7774 48.16 75.7774 45V22.14H85.2574V43.8C85.2574 45.36 85.4974 46.46 85.9774 47.1C86.4974 47.7 87.2774 48 88.3174 48C90.3174 48 92.0374 46.76 93.4774 44.28V22.14H102.957V54Z" fill="white"/>
<path d="M119.893 22.14V54H110.413V22.14H119.893ZM115.093 5.34C116.733 5.34 118.073 5.86 119.113 6.9C120.193 7.9 120.733 9.18 120.733 10.74C120.733 12.3 120.193 13.6 119.113 14.64C118.073 15.64 116.733 16.14 115.093 16.14C113.453 16.14 112.113 15.64 111.073 14.64C110.033 13.6 109.513 12.3 109.513 10.74C109.513 9.18 110.033 7.9 111.073 6.9C112.113 5.86 113.453 5.34 115.093 5.34Z" fill="white"/>
<path d="M154.827 13.82C153.627 14.22 152.307 14.48 150.867 14.6C149.427 14.72 147.667 14.78 145.587 14.78C149.307 16.46 151.167 19.12 151.167 22.76C151.167 25.92 150.087 28.5 147.927 30.5C145.767 32.5 142.827 33.5 139.107 33.5C137.667 33.5 136.327 33.3 135.087 32.9C134.607 33.22 134.227 33.66 133.947 34.22C133.667 34.74 133.527 35.28 133.527 35.84C133.527 37.56 134.907 38.42 137.667 38.42H142.707C144.827 38.42 146.707 38.8 148.347 39.56C149.987 40.32 151.247 41.36 152.127 42.68C153.047 44 153.507 45.5 153.507 47.18C153.507 50.26 152.247 52.62 149.727 54.26C147.207 55.94 143.527 56.78 138.687 56.78C135.287 56.78 132.587 56.42 130.587 55.7C128.627 55.02 127.227 53.98 126.387 52.58C125.547 51.18 125.127 49.38 125.127 47.18H130.107C130.107 48.46 130.347 49.46 130.827 50.18C131.307 50.94 132.167 51.5 133.407 51.86C134.647 52.26 136.407 52.46 138.687 52.46C142.007 52.46 144.367 52.04 145.767 51.2C147.207 50.4 147.927 49.18 147.927 47.54C147.927 46.06 147.367 44.94 146.247 44.18C145.127 43.42 143.567 43.04 141.567 43.04H136.587C133.907 43.04 131.867 42.48 130.467 41.36C129.107 40.2 128.427 38.76 128.427 37.04C128.427 36 128.727 35 129.327 34.04C129.927 33.08 130.787 32.22 131.907 31.46C130.067 30.5 128.707 29.32 127.827 27.92C126.987 26.48 126.567 24.74 126.567 22.7C126.567 20.58 127.087 18.68 128.127 17C129.207 15.32 130.667 14.02 132.507 13.1C134.387 12.14 136.467 11.66 138.747 11.66C141.227 11.7 143.307 11.62 144.987 11.42C146.667 11.18 148.047 10.88 149.127 10.52C150.247 10.12 151.607 9.56 153.207 8.84L154.827 13.82ZM138.747 15.62C136.667 15.62 135.047 16.28 133.887 17.6C132.767 18.88 132.207 20.58 132.207 22.7C132.207 24.86 132.787 26.6 133.947 27.92C135.107 29.2 136.747 29.84 138.867 29.84C141.027 29.84 142.667 29.22 143.787 27.98C144.947 26.7 145.527 24.92 145.527 22.64C145.527 17.96 143.267 15.62 138.747 15.62Z" fill="white"/>
<path d="M166.019 22.38V54H160.499V22.38H166.019ZM163.199 7.2C164.359 7.2 165.299 7.56 166.019 8.28C166.739 9 167.099 9.9 167.099 10.98C167.099 12.06 166.739 12.96 166.019 13.68C165.299 14.36 164.359 14.7 163.199 14.7C162.079 14.7 161.159 14.36 160.439 13.68C159.719 12.96 159.359 12.06 159.359 10.98C159.359 9.9 159.719 9 160.439 8.28C161.159 7.56 162.079 7.2 163.199 7.2Z" fill="white"/>
<path d="M200.652 22.38L189.912 54H183.252L172.332 22.38H178.332L186.612 49.08L194.832 22.38H200.652Z" fill="white"/>
<path d="M230.609 37.26C230.609 38.18 230.569 39.12 230.489 40.08H210.329C210.569 43.56 211.449 46.12 212.969 47.76C214.489 49.4 216.449 50.22 218.849 50.22C220.369 50.22 221.769 50 223.049 49.56C224.329 49.12 225.669 48.42 227.069 47.46L229.469 50.76C226.109 53.4 222.429 54.72 218.429 54.72C214.029 54.72 210.589 53.28 208.109 50.4C205.669 47.52 204.449 43.56 204.449 38.52C204.449 35.24 204.969 32.34 206.009 29.82C207.089 27.26 208.609 25.26 210.569 23.82C212.569 22.38 214.909 21.66 217.589 21.66C221.789 21.66 225.009 23.04 227.249 25.8C229.489 28.56 230.609 32.38 230.609 37.26ZM225.149 35.64C225.149 32.52 224.529 30.14 223.289 28.5C222.049 26.86 220.189 26.04 217.709 26.04C213.189 26.04 210.729 29.36 210.329 36H225.149V35.64Z" fill="white"/>
</g>
<defs>
<filter id="filter0_d_1_5" x="0.195389" y="0.339996" width="235.414" height="71.98" filterUnits="userSpaceOnUse" color-interpolation-filters="sRGB">
<feFlood flood-opacity="0" result="BackgroundImageFix"/>
<feColorMatrix in="SourceAlpha" type="matrix" values="0 0 0 0 0 0 0 0 0 0 0 0 0 0 0 0 0 0 127 0" result="hardAlpha"/>
<feOffset/>
<feGaussianBlur stdDeviation="2.5"/>
<feComposite in2="hardAlpha" operator="out"/>
<feColorMatrix type="matrix" values="0 0 0 0 0 0 0 0 0 0 0 0 0 0 0 0 0 0 0.3 0"/>
<feBlend mode="normal" in2="BackgroundImageFix" result="effect1_dropShadow_1_5"/>
<feBlend mode="normal" in="SourceGraphic" in2="effect1_dropShadow_1_5" result="shape"/>
</filter>
</defs>
</svg>
