<svg xmlns="http://www.w3.org/2000/svg" viewBox="0 0 163.34 34.46"><defs><style>.cls-1{fill:#e63543;}.cls-1,.cls-2{fill-rule:evenodd;}.cls-2,.cls-3{fill:#35a5e6;}</style></defs><g id="Layer_2" data-name="Layer 2"><g id="Layer_1-2" data-name="Layer 1"><path class="cls-1" d="M12.87,24.46a1.06,1.06,0,0,0-.62-.75,1.15,1.15,0,0,0-1.37.5h0a1.07,1.07,0,0,0-1.07-.58l-.24,0A1.19,1.19,0,0,0,9,24.1a1.77,1.77,0,0,0-.11,1.45,4.76,4.76,0,0,0,1.29,1.68,2.58,2.58,0,0,0,.69.54,6.47,6.47,0,0,0,1.83-2.12,1.72,1.72,0,0,0,.17-1.19"/><path id="SVGID" class="cls-2" d="M.07,18.66c0,.8,0,1.6,0,2.39,0,.61,0,1.21,0,1.81A28.82,28.82,0,0,0,2.15,33.39a.58.58,0,0,0,1,.17c.79-1.05,2.06-2.75,2.53-3.41.28-.4.52-.82.77-1.24a8.82,8.82,0,0,0,.86-2.67c.07-.33.05-.68.11-1a3.52,3.52,0,0,0-.13-1.35,1.06,1.06,0,0,0-.47-.28l-1-.48a6.89,6.89,0,0,1-2-1.7,6.65,6.65,0,0,1-.77-1.11c-.11-.23-.15-.45.05-.61a3.44,3.44,0,0,1,1.24-.56.89.89,0,0,1,.54,0l.8.76A7.63,7.63,0,0,0,7.43,20.9a11.27,11.27,0,0,0,2.06.58l.92.09a6,6,0,0,0,1.79,0c.3-.06.66-.1,1-.19a8,8,0,0,0,2.41-1.17,3.22,3.22,0,0,0,.71-.61,5.55,5.55,0,0,1-.51-.9,11.9,11.9,0,0,1-.44-4V13.43c0-.22,0-.43,0-.64,0-.89.05-1.78.07-2.67,0-1.06.05-2.12.08-3.18V5.88l-.06-1c-.1-.87-.1-2-.86-2.14a.86.86,0,0,0-.44.05c-.68.2-.77.95-.93,1.68-.29,1.28-.39,2.55-.63,3.86-.1.72-.19,1.43-.28,2.15a16.86,16.86,0,0,1-.3,1.71c-.05.17-.08.39-.22.46h0a2.14,2.14,0,0,1-.11-.61c0-.47-.06-.94-.1-1.41,0-.19,0-.38,0-.57,0-1.06-.07-2.13-.1-3.19,0-.29,0-.57,0-.86s0-.68,0-1c0-.61,0-1.23,0-1.85,0-.27,0-.53,0-.8l-.06-.78C11.14.7,11,0,9.94,0L9.7,0a1,1,0,0,0-.43.28,4.87,4.87,0,0,0-.51,2.21c0,.23,0,.46,0,.69-.12,2.16-.25,4.33-.37,6.49l0,.56c-.1.59-.09,1.21-.22,1.76-.06.27-.08.62-.29.74s-.24-.41-.28-.61c-.1-.48,0-1.05-.14-1.58,0-.22,0-.44,0-.66,0-.59,0-1.18,0-1.77s0-1,0-1.49c0-1.19-.11-2.39-.17-3.59,0-.18,0-.35,0-.53C7,1.82,7,1.19,6.42,1A1.06,1.06,0,0,0,5.87.9C4.76,1.09,4.69,2.38,4.5,3.5c-.1.57,0,1.21-.14,1.81l0,.62c0,.25,0,.5,0,.75L4.28,8c0,.61,0,1.21,0,1.81s0,1.3,0,1.95c0,.27,0,.53,0,.79l-.05.66c0,.41,0,.84-.1,1.23s-.06.69-.3.85c-.4,0-.5-.95-.58-1.34S3.07,13,3,12.5l-.06-1V10.16c0-.51,0-1,0-1.51,0-.17,0-.33,0-.49s0-.26,0-.4c-.09-.47-.15-.87-.56-1a.66.66,0,0,0-.38,0c-.52.12-.86,1-1,1.48A16.54,16.54,0,0,0,.3,10.69L.11,12,0,13.38c0,.18,0,.36,0,.54s0,.61,0,.92,0,.85,0,1.28c0,.85,0,1.69.05,2.54m7.78-2.2a3,3,0,0,1,1.72-1.77l.55-.15.33,0a2.91,2.91,0,0,1,2.93,1.76A3,3,0,0,1,13.59,18a4.12,4.12,0,0,1-.21.65,3,3,0,0,1-2.48,1.75,2.64,2.64,0,0,1-1.33-.2,2.93,2.93,0,0,1-1.75-1.85,5.51,5.51,0,0,1-.13-.78,2.35,2.35,0,0,1,.16-1.15m15.38,1.48c0-.37-.05-.74-.08-1.11-.23-1.35-.42-3.08-1.39-3.65a1.22,1.22,0,0,0-.34-.1H21a.93.93,0,0,0-.62.36A2.9,2.9,0,0,0,20.17,15l0,.77,0,1a3,3,0,0,1-.05.52,6.77,6.77,0,0,1-.59,1.62,9.42,9.42,0,0,1-3.05,3.61c-.52.39-1.1.72-1.65,1.06-.19.12-.61.31-.69.5a3.53,3.53,0,0,0,0,1.12c.06.67.12,1.35.17,2l0,.78v.68A8.91,8.91,0,0,1,14.35,30c0,.36-.07.73-.1,1.09l-.14.74a2.22,2.22,0,0,0,2.18,2.62h.87a1.75,1.75,0,0,0,1.51-.87h0c.42-.7.81-1.42,1.21-2.15A31.58,31.58,0,0,0,22.2,26c.19-.59.32-1.21.48-1.84.22-.87.27-1.78.42-2.71l.11-1.3,0-.89v-.83c0-.17,0-.33,0-.5M7.73,34.45H8.84a1.3,1.3,0,0,0,1.24-1h0a10.14,10.14,0,0,0,.38-2.43,7.26,7.26,0,0,0-.05-1.25c0-.13,0-.25-.05-.37A25.45,25.45,0,0,1,8,33.16l-.69.9h0a.24.24,0,0,0,.19.39h.19"/><path class="cls-3" d="M81,17.39a2.07,2.07,0,0,1,1.31.4,1,1,0,0,0,.49.22c.18,0,.42-.19.68-.55a1,1,0,0,0,.2-.54.57.57,0,0,0-.24-.44l-.3-.19-.26-.15a3.21,3.21,0,0,0-.78-.31,3.38,3.38,0,0,0-1-.16,4.42,4.42,0,0,0-2.11.58A4,4,0,0,0,78,17a3.42,3.42,0,0,0-.71,1.11,4.39,4.39,0,0,0,0,3.06A3.48,3.48,0,0,0,78,22.33a4.16,4.16,0,0,0,1,.78,4.22,4.22,0,0,0,1.07.45,4.1,4.1,0,0,0,1,.13,3.7,3.7,0,0,0,1-.17,3.36,3.36,0,0,0,.71-.28l.38-.23a1.59,1.59,0,0,0,.33-.25.45.45,0,0,0,.11-.31,1.19,1.19,0,0,0-.22-.56c-.24-.36-.46-.56-.64-.56a1.1,1.1,0,0,0-.47.21l-.2.13a1.58,1.58,0,0,1-.46.2,2.42,2.42,0,0,1-2.14-.42,1.89,1.89,0,0,1-.59-.73,2.49,2.49,0,0,1,0-2.09,1.92,1.92,0,0,1,.58-.72A2.56,2.56,0,0,1,81,17.39Z"/><path class="cls-3" d="M91.51,15.91a.74.74,0,0,0-.25-.11,2,2,0,0,0-.48-.05,1.68,1.68,0,0,0-.49.06.33.33,0,0,0-.23.18.85.85,0,0,0-.09.25,2.93,2.93,0,0,0,0,.36V19H86.81V16.61a1.77,1.77,0,0,0,0-.53c-.07-.22-.34-.33-.8-.33s-.68.08-.76.24a.76.76,0,0,0-.09.25,2.67,2.67,0,0,0,0,.36v6.1a1.73,1.73,0,0,0,.06.54c.07.22.34.33.8.33s.67-.08.76-.24a.85.85,0,0,0,.09-.25c0-.09,0-.21,0-.37V20.36H90V22.7a1.73,1.73,0,0,0,.06.54c.07.22.34.33.8.33s.67-.08.75-.24a.68.68,0,0,0,.1-.25,3.35,3.35,0,0,0,0-.37v-6.1a2.18,2.18,0,0,0,0-.53A.34.34,0,0,0,91.51,15.91Z"/><path class="cls-3" d="M94.09,15.75c-.41,0-.68.08-.76.24a.76.76,0,0,0-.09.25,3.55,3.55,0,0,0,0,.36v6.11a2.18,2.18,0,0,0,0,.53c.08.23.34.34.8.34s.68-.08.76-.24a.81.81,0,0,0,.09-.24,3.12,3.12,0,0,0,0-.37V16.61a2.34,2.34,0,0,0,0-.54C94.82,15.86,94.55,15.75,94.09,15.75Z"/><path class="cls-3" d="M101.8,22.25a1.15,1.15,0,0,0-.48-.07h-3.1V16.61a2.34,2.34,0,0,0,0-.54c-.07-.21-.34-.32-.8-.32s-.68.08-.76.24a.76.76,0,0,0-.09.25,2.67,2.67,0,0,0,0,.36v6.11a1.43,1.43,0,0,0,.06.52c.07.24.34.35.8.35h4a1,1,0,0,0,.52-.1.26.26,0,0,0,.13-.17,1.33,1.33,0,0,0,.05-.44,1.3,1.3,0,0,0-.05-.43A.28.28,0,0,0,101.8,22.25Z"/><path class="cls-3" d="M106.3,15.75h-2c-.42,0-.68.08-.76.23a1,1,0,0,0-.09.25,2.74,2.74,0,0,0,0,.37V22.7a1.31,1.31,0,0,0,.12.65c.09.14.34.22.74.22h2a3.76,3.76,0,0,0,2.78-1.17,3.85,3.85,0,0,0,1.15-2.79A3.64,3.64,0,0,0,109,16.87,3.83,3.83,0,0,0,106.3,15.75Zm1.51,5.48a2.19,2.19,0,0,1-1.51.62h-1.18V17.47h1.17a2.17,2.17,0,0,1,1.54.63,2.12,2.12,0,0,1,.65,1.57A2.06,2.06,0,0,1,107.81,21.23Z"/><path class="cls-3" d="M112.46,15.75a2.66,2.66,0,0,0-.67.06.47.47,0,0,0-.27.23,1.53,1.53,0,0,0-.09.61c0,.46.08.64.15.71a.77.77,0,0,0,.49.21h.1v.11a1.33,1.33,0,0,1-.22.77.61.61,0,0,1-.19.17l-.15.07-.09,0s0,0,0,.06a.52.52,0,0,0,0,.24.6.6,0,0,0,0,.25s0,.06,0,.06a1.38,1.38,0,0,0,1.16-.65,3.09,3.09,0,0,0,.54-1.6,2,2,0,0,0,0-.4V16.5a.74.74,0,0,0-.16-.55A.93.93,0,0,0,112.46,15.75Z"/><path class="cls-3" d="M119.2,19.33a5.48,5.48,0,0,0-.89-.33,7.9,7.9,0,0,0-.9-.2,1.77,1.77,0,0,1-.75-.27.68.68,0,0,1-.33-.58.65.65,0,0,1,.29-.56,1.07,1.07,0,0,1,.66-.19,1.26,1.26,0,0,1,.64.15l.19.16.11.1a1.08,1.08,0,0,0,.51.2c.23,0,.45-.17.68-.5a1.07,1.07,0,0,0,.24-.54c0-.08-.05-.22-.3-.46l-.27-.2a2.22,2.22,0,0,0-.72-.33,3.9,3.9,0,0,0-1.17-.16,2.58,2.58,0,0,0-1.88.68,2.21,2.21,0,0,0-.69,1.61,2.3,2.3,0,0,0,.27,1.15,1.81,1.81,0,0,0,.65.69,6,6,0,0,0,.89.39,5.85,5.85,0,0,0,.88.24,2.29,2.29,0,0,1,.74.27.58.58,0,0,1,.33.51c0,.44-.19.95-1.13.95a1.21,1.21,0,0,1-.59-.18,1.82,1.82,0,0,1-.46-.39c-.43-.42-.66-.5-.78-.5a.7.7,0,0,0-.5.23c-.36.35-.44.55-.44.66a1,1,0,0,0,.26.56l.1.12a2.72,2.72,0,0,0,.78.66,2.69,2.69,0,0,0,.72.3,3.69,3.69,0,0,0,1,.12,3.34,3.34,0,0,0,1.84-.56,2.13,2.13,0,0,0,.71-.8,2.6,2.6,0,0,0,.28-1.21,2.28,2.28,0,0,0-.27-1.15A1.48,1.48,0,0,0,119.2,19.33Z"/><path class="cls-3" d="M131.15,15.91a.84.84,0,0,0-.25-.11,1.86,1.86,0,0,0-.47-.05,1.75,1.75,0,0,0-.5.06.33.33,0,0,0-.23.18.85.85,0,0,0-.09.25,2.67,2.67,0,0,0,0,.36V19h-3.13V16.61a2.34,2.34,0,0,0,0-.54c-.08-.21-.35-.32-.81-.32s-.68.08-.76.24a.85.85,0,0,0-.09.25,3.55,3.55,0,0,0,0,.36v6.1a2.22,2.22,0,0,0,.05.54c.08.22.34.33.8.33s.68-.08.76-.24a.85.85,0,0,0,.09-.25,3.12,3.12,0,0,0,0-.37V20.36h3.13V22.7a1.73,1.73,0,0,0,.06.54c.07.22.34.33.8.33s.68-.08.76-.24a.85.85,0,0,0,.09-.25,3.56,3.56,0,0,0,0-.37v-6.1a1.89,1.89,0,0,0-.05-.54A.36.36,0,0,0,131.15,15.91Z"/><path class="cls-3" d="M138.08,17.47a1.7,1.7,0,0,0,.53-.06c.22-.07.33-.34.33-.8s-.08-.67-.23-.75a.72.72,0,0,0-.26-.1h-4.69a1.11,1.11,0,0,0-.72.17,1,1,0,0,0-.17.68v6.11a1.7,1.7,0,0,0,.06.53c.07.23.34.34.79.34h4.36a1.7,1.7,0,0,0,.53-.06c.22-.07.33-.34.33-.79s-.08-.68-.23-.76a.72.72,0,0,0-.26-.1h-3.86V20.53h2.27a1.7,1.7,0,0,0,.53-.06c.23-.08.34-.34.34-.8s-.08-.68-.23-.76a.9.9,0,0,0-.26-.09l-.36,0h-2.29V17.47Z"/><path class="cls-3" d="M144.77,16.26a.81.81,0,0,0-.78-.51.88.88,0,0,0-.47.13,1,1,0,0,0-.32.37l-3,6.14a1.35,1.35,0,0,0-.17.51q0,.33.57.6a1.29,1.29,0,0,0,.54.18.47.47,0,0,0,.28-.08.67.67,0,0,0,.17-.17l.17-.32.6-1.24h3.18l0,.06.57,1.19.16.32a.68.68,0,0,0,.17.17.5.5,0,0,0,.29.08,1.3,1.3,0,0,0,.53-.18c.39-.19.58-.39.58-.61a1.26,1.26,0,0,0-.18-.51Zm-1.7,4.2.91-1.87.91,1.87Z"/><path class="cls-3" d="M154.39,20.65h0l0-.07.06-.06a2.64,2.64,0,0,0,.79-2,2.76,2.76,0,0,0-.28-1.25,2.38,2.38,0,0,0-.69-.88,2.94,2.94,0,0,0-1.81-.68h-2.38c-.41,0-.67.08-.75.24a.81.81,0,0,0-.1.25,3.55,3.55,0,0,0,0,.36v6.1a1.82,1.82,0,0,0,.06.54c.07.22.34.33.79.33s.68-.08.76-.24a.63.63,0,0,0,.09-.25,3.26,3.26,0,0,0,0-.37V21.36h1.5l.41,0,0,.08c.5,1.19.78,1.84.85,2l.18.18a.47.47,0,0,0,.28.08,1.35,1.35,0,0,0,.52-.15c.41-.17.61-.37.61-.6a1.66,1.66,0,0,0-.15-.53C154.85,21.71,154.58,21.1,154.39,20.65Zm-1.26-1.28a1.12,1.12,0,0,1-.7.27h-1.52V17.47h1.5a1.15,1.15,0,0,1,.72.27,1,1,0,0,1,.37.82A1,1,0,0,1,153.13,19.37Z"/><path class="cls-3" d="M163.13,15.81a1.17,1.17,0,0,0-.47-.07h-6.11a1.36,1.36,0,0,0-.51.08.28.28,0,0,0-.13.18,1.5,1.5,0,0,0,0,.42,1.63,1.63,0,0,0,0,.43.33.33,0,0,0,.16.19,1.28,1.28,0,0,0,.47.07h2.22v5.63a3.06,3.06,0,0,0,0,.36,1,1,0,0,0,.08.25.41.41,0,0,0,.23.17,1.69,1.69,0,0,0,.51.06,1.78,1.78,0,0,0,.51-.06.38.38,0,0,0,.23-.17,1.11,1.11,0,0,0,.08-.24,3.06,3.06,0,0,0,0-.36V17.11h2.21a1.16,1.16,0,0,0,.51-.09.29.29,0,0,0,.13-.17,1.5,1.5,0,0,0,.05-.42,1.63,1.63,0,0,0-.05-.43A.31.31,0,0,0,163.13,15.81Z"/><path class="cls-3" d="M36.27,19.33a5.6,5.6,0,0,0-.9-.33c-.32-.09-.62-.15-.9-.2a1.68,1.68,0,0,1-.74-.27.69.69,0,0,1,0-1.14,1.09,1.09,0,0,1,.66-.19,1.28,1.28,0,0,1,.65.15l.19.16.11.1a1.08,1.08,0,0,0,.51.2c.22,0,.45-.17.68-.5a1.07,1.07,0,0,0,.24-.54c0-.08,0-.22-.31-.46l-.26-.2a2.22,2.22,0,0,0-.72-.33,3.9,3.9,0,0,0-1.17-.16,2.56,2.56,0,0,0-1.88.68,2.21,2.21,0,0,0-.69,1.61A2.3,2.3,0,0,0,32,19.06a1.62,1.62,0,0,0,.65.69,6.47,6.47,0,0,0,.89.39,5.85,5.85,0,0,0,.88.24,2.23,2.23,0,0,1,.73.27.57.57,0,0,1,.34.51c0,.44-.2.95-1.13.95a1.18,1.18,0,0,1-.59-.18,1.71,1.71,0,0,1-.47-.39c-.42-.42-.65-.5-.77-.5a.7.7,0,0,0-.5.23c-.37.35-.44.55-.44.66a1,1,0,0,0,.26.56l.1.12a2.72,2.72,0,0,0,.78.66,2.56,2.56,0,0,0,.72.3,3.69,3.69,0,0,0,1,.12,3.34,3.34,0,0,0,1.84-.56,2.13,2.13,0,0,0,.71-.8,2.6,2.6,0,0,0,.27-1.21A2.38,2.38,0,0,0,36.92,20,1.59,1.59,0,0,0,36.27,19.33Z"/><path class="cls-3" d="M42.57,16.26a.83.83,0,0,0-.78-.51.87.87,0,0,0-.46.13.9.9,0,0,0-.33.37l-3,6.14a1.25,1.25,0,0,0-.17.51q0,.33.57.6a1.33,1.33,0,0,0,.54.18.47.47,0,0,0,.28-.08.67.67,0,0,0,.17-.17c0-.07.1-.17.17-.32l.6-1.24h3.19l0,.06L44,23.12l.17.32a.42.42,0,0,0,.16.17.43.43,0,0,0,.29.08,1.38,1.38,0,0,0,.54-.18c.38-.19.57-.39.57-.61a1.35,1.35,0,0,0-.17-.51Zm-1.7,4.2.91-1.87.91,1.87Z"/><path class="cls-3" d="M52.54,15.86h0a1.34,1.34,0,0,0-.6-.18.46.46,0,0,0-.39.25c0,.06-.08.16-.14.31l-2.3,5-.1-.21-.39-.84-.07-.14c-.21-.46-.43-.95-.67-1.46L47.14,17l-.42-.91a1.78,1.78,0,0,0-.17-.27.4.4,0,0,0-.15-.12.48.48,0,0,0-.24,0,1.29,1.29,0,0,0-.51.18c-.39.19-.58.39-.58.6a1.17,1.17,0,0,0,.15.48l3,6.15a.9.9,0,0,0,.79.48h.11a.87.87,0,0,0,.46-.13.89.89,0,0,0,.32-.35l3-6.15a1.27,1.27,0,0,0,.16-.48C53.12,16.25,52.93,16.05,52.54,15.86Z"/><path class="cls-3" d="M59.6,17.47a1.73,1.73,0,0,0,.54-.06c.22-.07.33-.34.33-.8s-.08-.67-.24-.75a.62.62,0,0,0-.25-.1H55.29a1.11,1.11,0,0,0-.72.17,1,1,0,0,0-.17.68v6.11a1.59,1.59,0,0,0,.06.52c.07.24.34.35.79.35H59.6a1.73,1.73,0,0,0,.54-.06c.22-.07.33-.34.33-.79s-.08-.68-.24-.76a.62.62,0,0,0-.25-.1H56.12V20.53h2.26a1.73,1.73,0,0,0,.54-.06c.23-.08.34-.34.34-.8s-.08-.68-.23-.76a.9.9,0,0,0-.26-.09l-.36,0H56.12V17.47Z"/><path class="cls-3" d="M69.53,16.26a.83.83,0,0,0-.78-.51.84.84,0,0,0-.46.13.9.9,0,0,0-.33.37l-3,6.14a1.35,1.35,0,0,0-.17.51q0,.33.57.6a1.33,1.33,0,0,0,.54.18.47.47,0,0,0,.28-.08.67.67,0,0,0,.17-.17c0-.07.1-.17.17-.32l.6-1.24h3.19l.6,1.25.16.32a.55.55,0,0,0,.17.17.5.5,0,0,0,.29.08,1.38,1.38,0,0,0,.54-.18c.38-.19.57-.39.57-.61a1.26,1.26,0,0,0-.18-.51Zm-1.7,4.2.91-1.87.91,1.87Z"/></g></g></svg>